<?xml version="1.0" encoding="UTF-8" standalone="no"?>
<svg width="100" height="100" viewBox="0 0 100 100" xmlns="http://www.w3.org/2000/svg" xmlns:xlink="http://www.w3.org/1999/xlink">
	<path d="M100,83.92c-.43.05-.87.07-1.32.07-6.66,0-12.14-4.97-12.97-11.4v-2.95h0c0-.07,0-.14,0-.21,0-7.31-3.04-13.92-7.95-18.68,5.56-5.59,9.11-13.34,9.11-21.25C86.87,14.46,73.66.07,58.92,0h0s-58.92,0-58.92,0v17.42h58.82c6.89,0,10.61,6.99,10.61,12.31s-4.61,11.97-10.61,11.97h-31.44C12.96,42.39,1.12,53.89.01,68.18h-.01v31.82h17.44v-31.71c.71-4.95,4.89-8.76,9.94-9.19v.02h30.52c5.83.79,10.43,5.33,11.18,11.09v4.45h.04c.67,14.11,12.33,25.35,26.63,25.35,1.45,0,2.86-.12,4.25-.34v-15.73Z" fill="#5bd4d4"/>
</svg>
